<?xml version="1.0" encoding="UTF-8" standalone="no"?>
<svg
   id="Layer_1"
   data-name="Layer 1"
   viewBox="0 0 681.53998 184.57001"
   version="1.1"
   sodipodi:docname="Logo.svg"
   width="681.53998"
   height="184.57001"
   inkscape:version="1.1.1 (3bf5ae0d25, 2021-09-20)"
   xmlns:inkscape="http://www.inkscape.org/namespaces/inkscape"
   xmlns:sodipodi="http://sodipodi.sourceforge.net/DTD/sodipodi-0.dtd"
   xmlns="http://www.w3.org/2000/svg"
   xmlns:svg="http://www.w3.org/2000/svg"
   xmlns:rdf="http://www.w3.org/1999/02/22-rdf-syntax-ns#"
   xmlns:cc="http://creativecommons.org/ns#"
   xmlns:dc="http://purl.org/dc/elements/1.1/">
  <sodipodi:namedview
     id="namedview13583"
     pagecolor="#ffffff"
     bordercolor="#666666"
     borderopacity="1.0"
     inkscape:pageshadow="2"
     inkscape:pageopacity="0.0"
     inkscape:pagecheckerboard="0"
     showgrid="false"
     fit-margin-top="0"
     fit-margin-left="0"
     fit-margin-right="0"
     fit-margin-bottom="0"
     inkscape:zoom="0.80833333"
     inkscape:cx="257.93814"
     inkscape:cy="87.835052"
     inkscape:window-width="3840"
     inkscape:window-height="2066"
     inkscape:window-x="-11"
     inkscape:window-y="-11"
     inkscape:window-maximized="1"
     inkscape:current-layer="Layer_1" />
  <defs
     id="defs13558">
    <style
       id="style13556">.cls-1{fill:#cf0915;}.cls-2{fill:#9ad4e8;}.cls-3{fill:#83bcc9;}</style>
  </defs>
  <title
     id="title13560">Logo Magnett</title>
  <path
     class="cls-1"
     d="M 14.34,0 H 42 L 70.06,106.11 97.3,0 h 42.41 V 139.3 H 112.83 V 26.89 L 84.4,139.3 H 55.31 L 26.83,26.89 V 139.3 H 0 V 14.95 C 0,6.97 6.35,0 14.34,0 Z"
     id="path13562" />
  <path
     class="cls-1"
     d="m 181.91,59.2 h -27.25 c 3.28,-20.07 17.42,-29.91 42.41,-29.91 29.9,0 45.06,9.84 45.68,29.91 v 36.87 c 0,29.91 -18,43.23 -47.32,45.28 -26,2 -44,-10 -44,-34 0.61,-26 19.46,-33 46.91,-35.64 11.67,-1.44 17.61,-4.92 17.61,-10.86 -0.61,-6.14 -6.35,-9.22 -17.61,-9.22 -9.67,-0.01 -15,2.45 -16.43,7.57 z m 34.41,35.69 v -10 a 118.26,118.26 0 0 1 -21.71,6.55 c -10.86,2 -16.39,7.17 -16.39,15.16 0.61,8.61 5.12,12.7 13.73,12.7 15.15,-0.08 24.37,-9.09 24.37,-24.41 z"
     id="path13564" />
  <path
     class="cls-1"
     d="m 254.22,85.22 c 0,-36.06 16.79,-54.08 50.39,-54.7 33.8,-0.2 50.8,15.78 50.8,48.35 v 64.12 c 0,27.24 -17.2,41 -51.82,41.58 -24.59,0 -40.15,-11.47 -46.51,-34.41 h 30.12 c 1.84,7.78 8.19,11.47 19.46,11.47 14.34,0 21.71,-8.4 21.71,-25.2 v -11.06 c -7,10.65 -17.41,16 -30.93,16 -28.88,-0.02 -43.22,-18.87 -43.22,-56.15 z m 74.15,0.82 C 328.58,64.12 321,53.26 305.43,53.26 c -15.57,0 -23.15,10.86 -23.15,32.78 0.62,20.89 8,31.34 22.74,31.34 14.74,0 22.53,-10.49 23.35,-31.34 z"
     id="path13566" />
  <path
     class="cls-1"
     d="m 521.13,141.76 c -32.77,-1 -49.16,-20.08 -49.16,-57 0,-36.92 16.59,-55.31 49.57,-55.52 34.42,0 50.6,21.1 48.55,63.51 h -70.06 c 1,16.59 8.2,25 21.51,25 6.35,0 12.29,-2.66 17.62,-7.78 a 11.92,11.92 0 0 1 9.22,-3.9 h 20.07 c -5.94,22.99 -20.69,35.69 -47.32,35.69 z M 500.44,73.34 h 40.77 C 539.57,59 532.81,51.62 521.13,51.62 c -11.68,0 -18.64,7.38 -20.69,21.72 z"
     id="path13568" />
  <path
     class="cls-1"
     d="m 612.9,50.39 h -2.86 v 60 c 0,4.51 2.66,7 8,7 h 8.4 v 20.69 a 149.09,149.09 0 0 1 -28.67,-0.21 c -10.25,-1 -15.16,-7.37 -15,-19.46 V 0 h 14.16 c 7.16,0 13.11,6.56 13.11,13.73 v 17.16 h 16.38 v 6 a 13.25,13.25 0 0 1 -13.52,13.5 z"
     id="path13570" />
  <path
     class="cls-1"
     d="m 668.01,50.39 h -2.87 v 60 c 0,4.51 2.66,7 8,7 h 8.4 v 20.69 a 149.19,149.19 0 0 1 -28.71,-0.19 c -10.24,-1 -15.16,-7.37 -14.95,-19.46 V 0 h 14.15 c 7.17,0 13.11,6.56 13.11,13.73 v 17.16 h 16.39 v 6 a 13.25,13.25 0 0 1 -13.52,13.5 z"
     id="path13572" />
  <path
     class="cls-1"
     d="m 433.09,125.47 c 0,8.66 4.54,13 13.62,13.62 h 14 v -16.2 h -27.62 z"
     id="path13574" />
  <rect
     class="cls-1"
     x="367.69998"
     y="122.89"
     width="27.85"
     height="16.200001"
     id="rect13576" />
  <path
     class="cls-2"
     d="M 413.83,52.45 V 28.32 C 383.15,28.55 367.7,44.01 367.7,74.93 v 39 h 27.84 V 69.36 c 0.21,-11.26 6.29,-16.82 18.29,-16.91 z"
     id="path13578" />
  <path
     class="cls-3"
     d="m 414.52,28.31 h -0.69 v 24.13 h 0.28 c 12.17,0 18.36,5.57 19,16.92 v 44.53 h 27.62 v -39 C 460.94,43.78 445.67,28.31 414.52,28.31 Z"
     id="path13580" />
  <metadata
     id="metadata13642">
    <rdf:RDF>
      <cc:Work
         rdf:about="">
        <dc:title>Logo Magnett</dc:title>
      </cc:Work>
    </rdf:RDF>
  </metadata>
</svg>
