<?xml version="1.0" encoding="UTF-8" standalone="no"?>
<svg
   id="Layer_1"
   data-name="Layer 1"
   viewBox="0 0 1080 1080"
   version="1.1"
   sodipodi:docname="Magnett logo negro-03.svg"
   inkscape:version="1.1.1 (3bf5ae0d25, 2021-09-20)"
   xmlns:inkscape="http://www.inkscape.org/namespaces/inkscape"
   xmlns:sodipodi="http://sodipodi.sourceforge.net/DTD/sodipodi-0.dtd"
   xmlns:xlink="http://www.w3.org/1999/xlink"
   xmlns="http://www.w3.org/2000/svg"
   xmlns:svg="http://www.w3.org/2000/svg">
  <sodipodi:namedview
     id="namedview884"
     pagecolor="#ffffff"
     bordercolor="#666666"
     borderopacity="1.0"
     inkscape:pageshadow="2"
     inkscape:pageopacity="0.0"
     inkscape:pagecheckerboard="0"
     showgrid="false"
     inkscape:zoom="1.6925926"
     inkscape:cx="439.85777"
     inkscape:cy="534.68271"
     inkscape:window-width="1920"
     inkscape:window-height="2100"
     inkscape:window-x="897"
     inkscape:window-y="45"
     inkscape:window-maximized="0"
     inkscape:current-layer="Layer_1" />
  <defs
     id="defs857">
    <linearGradient
       id="linearGradient3064"
       inkscape:swatch="solid">
      <stop
         style="stop-color:#ffffff;stop-opacity:1;"
         offset="0"
         id="stop3062" />
    </linearGradient>
    <linearGradient
       inkscape:collect="always"
       id="linearGradient31321">
      <stop
         style="stop-color:#00ff00;stop-opacity:1;"
         offset="0"
         id="stop31317" />
      <stop
         style="stop-color:#00ff00;stop-opacity:0;"
         offset="1"
         id="stop31319" />
    </linearGradient>
    <rect
       x="359.80306"
       y="616.21444"
       width="530.54705"
       height="130.56893"
       id="rect4686" />
    <style
       id="style855">.cls-1{fill:none;}.cls-2{fill:#cf0915;}.cls-3{fill:#aa0717;}</style>
    <radialGradient
       inkscape:collect="always"
       xlink:href="#linearGradient31321"
       id="radialGradient31323"
       cx="460.74249"
       cy="637.34314"
       fx="460.74249"
       fy="637.34314"
       r="99.379753"
       gradientTransform="matrix(1,0,0,0.13785504,0,549.48217)"
       gradientUnits="userSpaceOnUse" />
    <clipPath
       clipPathUnits="userSpaceOnUse"
       id="clipPath22">
      <path
         d="M 36,848.469 C 2008.8,-268.43 2748.14,1679 3840,495.68 v 629.11 C 2469.6,1658.4 1694.4,196.801 36,848.469 Z"
         clip-rule="evenodd"
         id="path20" />
    </clipPath>
    <clipPath
       clipPathUnits="userSpaceOnUse"
       id="clipPath542">
      <path
         d="M 0,980.359 C 1687.65,1914.35 2867.08,0.832031 3840,840.43 V 630.219 C 2841.94,28.3086 1553.67,1749.37 0,978.582 Z"
         clip-rule="evenodd"
         id="path540" />
    </clipPath>
    <clipPath
       clipPathUnits="userSpaceOnUse"
       id="clipPath1050">
      <path
         d="M 69.5977,776.672 C 1643.02,-328.949 2689.64,1345.07 3784.8,379.199 2897.59,1617.71 1737.75,-324.328 69.5977,776.672 Z"
         clip-rule="evenodd"
         id="path1048" />
    </clipPath>
    <clipPath
       clipPathUnits="userSpaceOnUse"
       id="clipPath1570">
      <path
         d="M 2769.93,1218.41 C 1918.95,1313.79 1297.92,336.961 55.3711,976.02 1153.2,462.32 1893.46,1359.13 2769.93,1218.41 Z"
         clip-rule="evenodd"
         id="path1568" />
    </clipPath>
    <clipPath
       clipPathUnits="userSpaceOnUse"
       id="clipPath2090">
      <path
         d="M 1978.89,1150.59 C 1375.89,1218.17 935.828,526 55.3711,978.832 833.285,614.832 1357.83,1250.3 1978.89,1150.59 Z"
         clip-rule="evenodd"
         id="path2088" />
    </clipPath>
    <clipPath
       clipPathUnits="userSpaceOnUse"
       id="clipPath2610">
      <path
         d="M 3804.68,611.82 C 1725.78,-269.059 1209.13,1729.65 0,707.68 V 983.109 C 997.352,1603.99 1787.12,-34.8984 3804.68,611.82 Z"
         clip-rule="evenodd"
         id="path2608" />
    </clipPath>
    <clipPath
       clipPathUnits="userSpaceOnUse"
       id="clipPath3126">
      <path
         d="m 1898.27,2635.72 c -250.82,28.11 -520.11,-325.2 -800.09,-71.45 323.57,-151.4 466.74,201.8 800.09,71.45 z"
         clip-rule="evenodd"
         id="path3124" />
    </clipPath>
    <clipPath
       clipPathUnits="userSpaceOnUse"
       id="clipPath3646">
      <path
         d="M 2938,2562.83 C 2362.14,2627.38 1743.9,1816.22 1101.08,2398.8 1843.97,2051.19 2172.65,2862.11 2938,2562.83 Z"
         clip-rule="evenodd"
         id="path3644" />
    </clipPath>
    <clipPath
       clipPathUnits="userSpaceOnUse"
       id="clipPath4166">
      <path
         d="m 2309.36,2597.73 c -378.79,42.45 -785.45,-491.11 -1208.28,-107.9 488.65,-228.64 704.85,304.76 1208.28,107.9 z"
         clip-rule="evenodd"
         id="path4164" />
    </clipPath>
    <clipPath
       clipPathUnits="userSpaceOnUse"
       id="clipPath22-5">
      <path
         d="M 36,848.469 C 2008.8,-268.43 2748.14,1679 3840,495.68 v 629.11 C 2469.6,1658.4 1694.4,196.801 36,848.469 Z"
         clip-rule="evenodd"
         id="path20-0" />
    </clipPath>
    <clipPath
       clipPathUnits="userSpaceOnUse"
       id="clipPath542-7">
      <path
         d="M 0,980.359 C 1687.65,1914.35 2867.08,0.832031 3840,840.43 V 630.219 C 2841.94,28.3086 1553.67,1749.37 0,978.582 Z"
         clip-rule="evenodd"
         id="path540-2" />
    </clipPath>
    <clipPath
       clipPathUnits="userSpaceOnUse"
       id="clipPath1050-0">
      <path
         d="M 69.5977,776.672 C 1643.02,-328.949 2689.64,1345.07 3784.8,379.199 2897.59,1617.71 1737.75,-324.328 69.5977,776.672 Z"
         clip-rule="evenodd"
         id="path1048-6" />
    </clipPath>
    <clipPath
       clipPathUnits="userSpaceOnUse"
       id="clipPath1570-8">
      <path
         d="M 2769.93,1218.41 C 1918.95,1313.79 1297.92,336.961 55.3711,976.02 1153.2,462.32 1893.46,1359.13 2769.93,1218.41 Z"
         clip-rule="evenodd"
         id="path1568-6" />
    </clipPath>
    <clipPath
       clipPathUnits="userSpaceOnUse"
       id="clipPath2090-3">
      <path
         d="M 1978.89,1150.59 C 1375.89,1218.17 935.828,526 55.3711,978.832 833.285,614.832 1357.83,1250.3 1978.89,1150.59 Z"
         clip-rule="evenodd"
         id="path2088-2" />
    </clipPath>
    <clipPath
       clipPathUnits="userSpaceOnUse"
       id="clipPath2610-3">
      <path
         d="M 3804.68,611.82 C 1725.78,-269.059 1209.13,1729.65 0,707.68 V 983.109 C 997.352,1603.99 1787.12,-34.8984 3804.68,611.82 Z"
         clip-rule="evenodd"
         id="path2608-5" />
    </clipPath>
    <clipPath
       clipPathUnits="userSpaceOnUse"
       id="clipPath3126-7">
      <path
         d="m 1898.27,2635.72 c -250.82,28.11 -520.11,-325.2 -800.09,-71.45 323.57,-151.4 466.74,201.8 800.09,71.45 z"
         clip-rule="evenodd"
         id="path3124-2" />
    </clipPath>
    <clipPath
       clipPathUnits="userSpaceOnUse"
       id="clipPath3646-8">
      <path
         d="M 2938,2562.83 C 2362.14,2627.38 1743.9,1816.22 1101.08,2398.8 1843.97,2051.19 2172.65,2862.11 2938,2562.83 Z"
         clip-rule="evenodd"
         id="path3644-6" />
    </clipPath>
    <clipPath
       clipPathUnits="userSpaceOnUse"
       id="clipPath4166-2">
      <path
         d="m 2309.36,2597.73 c -378.79,42.45 -785.45,-491.11 -1208.28,-107.9 488.65,-228.64 704.85,304.76 1208.28,107.9 z"
         clip-rule="evenodd"
         id="path4164-5" />
    </clipPath>
  </defs>
  <title
     id="title859">Magnett logo negro</title>
  <a
     id="a29544">
    <path
       d="M213.51,452.11h27.66l28.06,106.11,27.24-106.11h42.41v139.3H312V479L283.57,591.41H254.48L226,479V591.41H199.17V467.06C199.17,459.08,205.52,452.11,213.51,452.11Z"
       id="path861"
       style="fill:#0b1728" />
  </a>
  <path
     d="M381.08,511.31H353.83c3.28-20.07,17.42-29.91,42.41-29.91,29.9,0,45.06,9.84,45.68,29.91v36.87c0,29.91-18,43.23-47.32,45.28-26,2-44-10-44-34,.61-26,19.46-33,46.91-35.64,11.67-1.44,17.61-4.92,17.61-10.86-.61-6.14-6.35-9.22-17.61-9.22C387.84,503.73,382.51,506.19,381.08,511.31ZM415.49,547v-10a118.26,118.26,0,0,1-21.71,6.55c-10.86,2-16.39,7.17-16.39,15.16.61,8.61,5.12,12.7,13.73,12.7C406.27,571.33,415.49,562.32,415.49,547Z"
     id="path863"
     style="fill:#0b1728" />
  <path
     d="M453.39,537.33c0-36.06,16.79-54.08,50.39-54.7,33.8-.2,50.8,15.78,50.8,48.35V595.1c0,27.24-17.2,41-51.82,41.58-24.59,0-40.15-11.47-46.51-34.41h30.12c1.84,7.78,8.19,11.47,19.46,11.47,14.34,0,21.71-8.4,21.71-25.2V577.48c-7,10.65-17.41,16-30.93,16C467.73,593.46,453.39,574.61,453.39,537.33Zm74.15.82c.21-21.92-7.37-32.78-22.94-32.78s-23.15,10.86-23.15,32.78c.62,20.89,8,31.34,22.74,31.34S526.72,559,527.54,538.15Z"
     id="path865"
     style="fill:#0b1728" />
  <path
     d="M720.3,593.87c-32.77-1-49.16-20.08-49.16-57s16.59-55.31,49.57-55.52c34.42,0,50.6,21.1,48.55,63.51H699.2c1,16.59,8.2,25,21.51,25,6.35,0,12.29-2.66,17.62-7.78a11.92,11.92,0,0,1,9.22-3.9h20.07C761.68,581.17,746.93,593.87,720.3,593.87Zm-20.69-68.42h40.77c-1.64-14.34-8.4-21.72-20.08-21.72S701.66,511.11,699.61,525.45Z"
     id="path867"
     style="fill:#0b1728" />
  <path
     d="M812.07,502.5h-2.86v60c0,4.51,2.66,7,8,7h8.4v20.69a149.09,149.09,0,0,1-28.67-.21c-10.25-1-15.16-7.37-15-19.46V452.11H796.1c7.16,0,13.11,6.56,13.11,13.73V483h16.38V489A13.25,13.25,0,0,1,812.07,502.5Z"
     id="path869"
     style="fill:#0b1728" />
  <path
     d="M867.18,502.5h-2.87v60c0,4.51,2.66,7,8,7h8.4v20.69A149.19,149.19,0,0,1,852,590c-10.24-1-15.16-7.37-14.95-19.46V452.11H851.2c7.17,0,13.11,6.56,13.11,13.73V483H880.7V489A13.25,13.25,0,0,1,867.18,502.5Z"
     id="path871"
     style="fill:#0b1728" />
  <path
     class="cls-1"
     d="M375.63,558.19c.62,8.66,5.16,12.79,13.83,12.79,15.26,0,24.54-9.08,24.54-24.55V536.32a118.87,118.87,0,0,1-21.86,6.6C381.2,545,375.63,550.14,375.63,558.19Z"
     id="path873" />
  <path
     d="M632.26,577.58c0,8.66,4.54,13,13.62,13.62h14V575H632.26Z"
     id="path875"
     style="fill:#214478" />
  <rect
     x="566.87"
     y="575"
     width="27.85"
     height="16.2"
     id="rect877"
     style="fill:#782121" />
  <path
     class="cls-2"
     d="M613,504.56V480.43c-30.68.23-46.13,15.69-46.13,46.61v39h27.84V521.47C594.92,510.21,601,504.65,613,504.56Z"
     id="path879"
     style="fill:#782121" />
  <path
     class="cls-3"
     d="M 613.69,480.43 H 613 v 24.13 h 0.28 c 12.17,0 18.36,5.57 19,16.92 v 44.53 h 27.62 v -39 c 0.21,-31.11 -15.06,-46.58 -46.21,-46.58 z"
     id="path881"
     style="fill:#214478" />
  <text
     xml:space="preserve"
     id="text4684"
     style="font-style:normal;font-variant:normal;font-weight:bold;font-stretch:normal;font-size:40px;line-height:1.25;font-family:'Segoe Print';-inkscape-font-specification:'Segoe Print Bold';white-space:pre;shape-inside:url(#rect4686);fill:#00112b;fill-opacity:1;stroke:none"
     transform="matrix(2.0997626,0,0,2.058863,-449.58165,-638.43609)"><tspan
       x="359.80273"
       y="650.48315"
       id="tspan31690"><tspan
         style="font-weight:500;font-family:'Baloo 2';-inkscape-font-specification:'Baloo 2 Medium'"
         id="tspan31688">automation</tspan></tspan></text>
  <g
     inkscape:groupmode="layer"
     id="layer2"
     inkscape:label="Layer 2"
     style="display:inline" />
  <g
     inkscape:groupmode="layer"
     id="layer1"
     inkscape:label="Layer 1"
     style="display:none" />
</svg>
